# xmcd
#
# Track frame offsets: 
#        182
#        6167
#        26365
#        49532
#        70112
#        88115
#        108110
#        126222
#        142397
#        159782
#        180327
#        199550
#        216472
#        234107
#        251542
#
# Disc length: 3611 seconds
#
# Revision: 5
# Processed by: cddbd v1.5.2PL0 Copyright (c) Steve Scherf et al.
# Submitted via: ExactAudioCopyFreeDBPlugin 1.0
#
DISCID=be0e190f
DTITLE=Changing Faces - All Day, all Night
DYEAR=1997
DGENRE=R&B
TTITLE0=Intro
TTITLE1=G.H.E.T.T.O.U.T
TTITLE2=My Lovely
TTITLE3=Thinkin' About You
TTITLE4=I Apologize
TTITLE5=Time After Time
TTITLE6=All Of My Days Feat. Jay-Z
TTITLE7=All Day, All Night
TTITLE8=G.H.E.T.T.O.U.T Part 2
TTITLE9=My Heart Can't Take Much More
TTITLE10=I Got Somebody Else
TTITLE11=Goin' Nowhere
TTITLE12=No Stoppin' This Groove
TTITLE13=All That
TTITLE14=Baby Tonight
EXTD=
EXTT0=
EXTT1=
EXTT2=
EXTT3=
EXTT4=
EXTT5=
EXTT6=
EXTT7=
EXTT8=
EXTT9=
EXTT10=
EXTT11=
EXTT12=
EXTT13=
EXTT14=
PLAYORDER=
